<!DOCTYPE svg PUBLIC "-//W3C//DTD SVG 20010904//EN" "http://www.w3.org/TR/2001/REC-SVG-20010904/DTD/svg10.dtd">
<svg version="1.0" xmlns="http://www.w3.org/2000/svg" width="100px" height="100px" viewBox="0 0 1000 1000" preserveAspectRatio="xMidYMid meet">
<g id="layer101" fill="#000000" stroke="none">
 <path d="M466 871 c-5 -7 -75 -11 -215 -11 -184 0 -211 -2 -230 -17 -21 -18 -21 -22 -19 -313 l3 -295 32 -15 c25 -11 33 -21 33 -42 0 -17 8 -33 22 -42 60 -39 251 -51 351 -22 43 12 62 14 84 5 80 -30 267 -27 351 6 38 15 42 21 42 51 0 24 5 34 15 34 9 0 27 11 40 25 l25 24 0 274 c0 256 -1 276 -19 298 -19 23 -24 24 -233 30 -117 4 -227 10 -244 14 -20 4 -34 3 -38 -4z m-171 -161 c28 0 78 6 113 14 l62 13 0 -283 0 -282 -52 -13 c-68 -17 -202 -15 -253 4 l-40 14 -3 280 -2 280 62 -13 c35 -8 86 -14 113 -14z m400 0 c28 0 78 6 113 14 l62 13 -2 -281 -3 -281 -40 -14 c-52 -18 -208 -18 -260 0 l-40 14 -3 281 -2 281 62 -13 c35 -8 86 -14 113 -14z"/>
 <path d="M650 520 c0 -94 -1 -100 -21 -100 -15 0 -20 -5 -17 -22 3 -21 8 -23 63 -23 l60 0 3 123 3 122 -46 0 -45 0 0 -100z"/>
 <path d="M662 308 c-32 -32 4 -87 48 -73 25 8 37 50 20 70 -15 18 -51 20 -68 3z"/>
 </g>

</svg>