<!DOCTYPE svg PUBLIC "-//W3C//DTD SVG 20010904//EN" "http://www.w3.org/TR/2001/REC-SVG-20010904/DTD/svg10.dtd">
<svg version="1.0" xmlns="http://www.w3.org/2000/svg" width="294px" height="278px" viewBox="0 0 2940 2780" preserveAspectRatio="xMidYMid meet">
<g id="layer101" fill="#393461" stroke="none">
 <path d="M73 2773 c-78 -7 -73 68 -73 -1004 0 -698 3 -965 12 -990 23 -69 44 -93 559 -637 59 -62 104 -100 136 -115 l48 -22 728 0 729 0 23 27 c48 56 43 219 -9 335 -31 67 -145 243 -157 243 -5 0 -9 -81 -9 -180 0 -167 -1 -181 -20 -200 -20 -20 -33 -20 -579 -20 l-558 0 28 163 c15 89 35 191 43 227 21 87 20 143 -1 169 -18 21 -309 114 -558 177 -137 34 -181 57 -205 105 -19 37 -20 62 -20 753 0 413 4 725 9 739 5 13 17 27 25 30 9 4 413 7 898 7 l881 1 25 -24 c20 -20 24 -36 28 -96 4 -95 23 -129 113 -211 l76 -70 8 262 c9 281 6 306 -39 327 -18 8 -309 11 -1062 9 -570 -1 -1056 -3 -1079 -5z m512 -2067 c183 -60 201 -92 149 -258 -43 -135 -41 -135 -154 -15 -141 149 -274 297 -279 309 -8 24 170 1 284 -36z"/>
 <path d="M1580 2338 c0 -18 -9 -112 -20 -208 -25 -218 -27 -323 -6 -371 13 -32 421 -746 672 -1176 167 -287 198 -296 464 -147 144 81 205 126 230 167 23 36 26 102 8 144 -20 45 -758 1325 -785 1361 -39 52 -399 224 -535 256 -26 6 -28 4 -28 -26z m317 -197 c26 -17 61 -43 78 -58 24 -21 27 -28 15 -35 -178 -107 -323 -189 -326 -185 -3 3 -8 51 -11 108 -5 98 -4 106 19 139 52 76 138 88 225 31z m836 -1260 c39 -58 97 -171 97 -186 0 -18 -31 -48 -105 -98 -80 -55 -242 -137 -271 -137 -13 0 -35 15 -55 37 -33 38 -89 150 -89 178 0 26 28 61 73 91 83 56 273 153 298 154 20 0 33 -10 52 -39z"/>
 <path d="M595 1974 c-10 -11 -15 -29 -13 -52 2 -28 10 -38 38 -53 32 -17 62 -19 362 -19 l328 0 0 25 c0 38 -25 92 -48 104 -14 7 -129 11 -336 11 -277 0 -317 -2 -331 -16z"/>
 <path d="M634 1629 c-21 -6 -37 -20 -48 -43 -21 -45 -20 -62 4 -86 19 -19 33 -20 466 -20 l447 0 -6 36 c-7 44 -29 78 -64 101 -25 16 -62 18 -398 20 -205 1 -384 -2 -401 -8z"/>
 <path d="M605 1238 c-43 -24 -47 -63 -11 -105 l24 -28 562 -3 562 -3 -7 23 c-12 38 -36 81 -58 106 l-20 22 -516 0 c-366 -1 -522 -4 -536 -12z"/>
 <path d="M1196 805 c-38 -41 -41 -63 -15 -91 l22 -24 268 0 c265 0 268 0 283 22 22 31 20 71 -5 94 -19 17 -42 19 -275 22 l-253 4 -25 -27z"/>
 </g>

</svg>