<!DOCTYPE svg PUBLIC "-//W3C//DTD SVG 20010904//EN" "http://www.w3.org/TR/2001/REC-SVG-20010904/DTD/svg10.dtd">
<svg version="1.0" xmlns="http://www.w3.org/2000/svg" width="50px" height="50px" viewBox="0 0 500 500" preserveAspectRatio="xMidYMid meet">
<g id="layer101" fill="#000000" stroke="none">
 <path d="M80 411 c0 -62 -2 -70 -21 -76 -20 -7 -21 -12 -17 -77 6 -77 28 -118 69 -129 13 -4 18 -7 12 -8 -25 -2 -44 -46 -34 -75 9 -21 17 -26 44 -26 18 0 38 5 45 12 20 20 14 65 -10 82 -19 14 -20 16 -5 16 10 0 29 11 42 25 22 21 25 33 25 100 0 58 -3 77 -15 81 -10 4 -15 21 -15 53 0 84 -5 91 -66 91 l-54 0 0 -69z"/>
 <path d="M326 451 c-18 -19 -24 -31 -16 -36 8 -5 8 -10 0 -20 -8 -10 -8 -15 0 -20 8 -5 8 -10 0 -20 -8 -9 -8 -15 -1 -20 7 -3 0 -16 -16 -29 -51 -44 -31 -132 36 -157 53 -21 121 26 121 83 0 31 -19 78 -32 78 -4 0 -8 28 -8 63 0 53 -4 67 -23 85 -13 12 -26 22 -28 22 -3 0 -18 -13 -33 -29z m44 -239 c0 -13 -12 -22 -22 -16 -10 6 -1 24 13 24 5 0 9 -4 9 -8z"/>
 </g>

</svg>